<mxfile host="app.diagrams.net" modified="2023-12-02T21:10:45.450Z" agent="Mozilla/5.0 (Windows NT 10.0; Win64; x64) AppleWebKit/537.36 (KHTML, like Gecko) Chrome/109.0.0.0 Safari/537.36" etag="IB5P86uHkBCaQQIOo-K-" version="22.1.5" type="device">
  <diagram name="Page-1" id="13e1069c-82ec-6db2-03f1-153e76fe0fe0">
    <mxGraphModel dx="1114" dy="1434" grid="1" gridSize="10" guides="1" tooltips="1" connect="1" arrows="1" fold="1" page="1" pageScale="1" pageWidth="1100" pageHeight="850" background="none" math="0" shadow="0">
      <root>
        <mxCell id="0" />
        <mxCell id="1" parent="0" />
        <mxCell id="BUL7kBs1qDF7v4zvFPgR-4" value="" style="shape=umlLifeline;perimeter=lifelinePerimeter;whiteSpace=wrap;html=1;container=1;dropTarget=0;collapsible=0;recursiveResize=0;outlineConnect=0;portConstraint=eastwest;newEdgeStyle={&quot;curved&quot;:0,&quot;rounded&quot;:0};participant=umlActor;" vertex="1" parent="1">
          <mxGeometry x="130" y="-10" width="20" height="540" as="geometry" />
        </mxCell>
        <mxCell id="BUL7kBs1qDF7v4zvFPgR-54" value="" style="html=1;points=[[0,0,0,0,5],[0,1,0,0,-5],[1,0,0,0,5],[1,1,0,0,-5]];perimeter=orthogonalPerimeter;outlineConnect=0;targetShapes=umlLifeline;portConstraint=eastwest;newEdgeStyle={&quot;curved&quot;:0,&quot;rounded&quot;:0};" vertex="1" parent="BUL7kBs1qDF7v4zvFPgR-4">
          <mxGeometry x="5" y="53" width="10" height="447" as="geometry" />
        </mxCell>
        <mxCell id="BUL7kBs1qDF7v4zvFPgR-5" value="Пользователь" style="text;html=1;align=center;verticalAlign=middle;resizable=0;points=[];autosize=1;strokeColor=none;fillColor=none;" vertex="1" parent="1">
          <mxGeometry x="85" y="-30" width="110" height="30" as="geometry" />
        </mxCell>
        <mxCell id="BUL7kBs1qDF7v4zvFPgR-11" value="Backend" style="shape=umlLifeline;perimeter=lifelinePerimeter;whiteSpace=wrap;html=1;container=1;dropTarget=0;collapsible=0;recursiveResize=0;outlineConnect=0;portConstraint=eastwest;newEdgeStyle={&quot;curved&quot;:0,&quot;rounded&quot;:0};" vertex="1" parent="1">
          <mxGeometry x="390" y="-10" width="100" height="540" as="geometry" />
        </mxCell>
        <mxCell id="BUL7kBs1qDF7v4zvFPgR-12" value="Фильмы" style="shape=umlLifeline;perimeter=lifelinePerimeter;whiteSpace=wrap;html=1;container=1;dropTarget=0;collapsible=0;recursiveResize=0;outlineConnect=0;portConstraint=eastwest;newEdgeStyle={&quot;curved&quot;:0,&quot;rounded&quot;:0};" vertex="1" parent="1">
          <mxGeometry x="710" y="-10" width="100" height="530" as="geometry" />
        </mxCell>
        <mxCell id="BUL7kBs1qDF7v4zvFPgR-15" value="" style="endArrow=classic;html=1;rounded=0;" edge="1" parent="1">
          <mxGeometry width="50" height="50" relative="1" as="geometry">
            <mxPoint x="145" y="90" as="sourcePoint" />
            <mxPoint x="435" y="90" as="targetPoint" />
          </mxGeometry>
        </mxCell>
        <mxCell id="BUL7kBs1qDF7v4zvFPgR-16" value="Поиск фильмов с заданными фильтрами" style="text;html=1;align=center;verticalAlign=middle;resizable=0;points=[];autosize=1;strokeColor=none;fillColor=none;" vertex="1" parent="1">
          <mxGeometry x="160" y="90" width="260" height="30" as="geometry" />
        </mxCell>
        <mxCell id="BUL7kBs1qDF7v4zvFPgR-21" value="" style="endArrow=classic;html=1;rounded=0;" edge="1" parent="1">
          <mxGeometry width="50" height="50" relative="1" as="geometry">
            <mxPoint x="445" y="202.5" as="sourcePoint" />
            <mxPoint x="445" y="247.5" as="targetPoint" />
            <Array as="points">
              <mxPoint x="515.5" y="202.5" />
            </Array>
          </mxGeometry>
        </mxCell>
        <mxCell id="BUL7kBs1qDF7v4zvFPgR-22" value="Валидация запросов и применение фильров" style="text;html=1;align=center;verticalAlign=middle;resizable=0;points=[];autosize=1;strokeColor=none;fillColor=none;" vertex="1" parent="1">
          <mxGeometry x="445" y="170" width="280" height="30" as="geometry" />
        </mxCell>
        <mxCell id="BUL7kBs1qDF7v4zvFPgR-25" value="" style="endArrow=classic;html=1;rounded=0;" edge="1" parent="1" target="BUL7kBs1qDF7v4zvFPgR-12">
          <mxGeometry width="50" height="50" relative="1" as="geometry">
            <mxPoint x="440.5" y="294.5" as="sourcePoint" />
            <mxPoint x="680.5" y="294.5" as="targetPoint" />
          </mxGeometry>
        </mxCell>
        <mxCell id="BUL7kBs1qDF7v4zvFPgR-26" value="Запрос фильмов по критериям" style="text;html=1;align=center;verticalAlign=middle;resizable=0;points=[];autosize=1;strokeColor=none;fillColor=none;" vertex="1" parent="1">
          <mxGeometry x="460" y="270" width="200" height="30" as="geometry" />
        </mxCell>
        <mxCell id="BUL7kBs1qDF7v4zvFPgR-27" value="Список подходящих фильмов" style="html=1;verticalAlign=bottom;endArrow=open;dashed=1;endSize=8;curved=0;rounded=0;" edge="1" parent="1" source="BUL7kBs1qDF7v4zvFPgR-12">
          <mxGeometry relative="1" as="geometry">
            <mxPoint x="680" y="340" as="sourcePoint" />
            <mxPoint x="445" y="340" as="targetPoint" />
          </mxGeometry>
        </mxCell>
        <mxCell id="BUL7kBs1qDF7v4zvFPgR-28" value="alt" style="shape=umlFrame;whiteSpace=wrap;html=1;pointerEvents=0;" vertex="1" parent="1">
          <mxGeometry x="50" y="50" width="820" height="430" as="geometry" />
        </mxCell>
        <mxCell id="BUL7kBs1qDF7v4zvFPgR-30" value="JОтображение отфильтрованных фильмов" style="html=1;verticalAlign=bottom;endArrow=open;dashed=1;endSize=8;curved=0;rounded=0;" edge="1" parent="1" target="BUL7kBs1qDF7v4zvFPgR-54">
          <mxGeometry relative="1" as="geometry">
            <mxPoint x="435" y="350" as="sourcePoint" />
            <mxPoint x="150" y="350" as="targetPoint" />
          </mxGeometry>
        </mxCell>
        <mxCell id="BUL7kBs1qDF7v4zvFPgR-32" value="" style="endArrow=none;dashed=1;html=1;rounded=0;entryX=1.006;entryY=0.751;entryDx=0;entryDy=0;entryPerimeter=0;exitX=0;exitY=0.781;exitDx=0;exitDy=0;exitPerimeter=0;" edge="1" parent="1" target="BUL7kBs1qDF7v4zvFPgR-28">
          <mxGeometry width="50" height="50" relative="1" as="geometry">
            <mxPoint x="47.72" y="374.32000000000005" as="sourcePoint" />
            <mxPoint x="810" y="370" as="targetPoint" />
          </mxGeometry>
        </mxCell>
        <mxCell id="BUL7kBs1qDF7v4zvFPgR-33" value="[Если фильмы найдены]" style="text;html=1;align=center;verticalAlign=middle;resizable=0;points=[];autosize=1;strokeColor=none;fillColor=none;" vertex="1" parent="1">
          <mxGeometry x="140" y="50" width="160" height="30" as="geometry" />
        </mxCell>
        <mxCell id="BUL7kBs1qDF7v4zvFPgR-34" value="[Если фильмы не найдены]" style="text;html=1;align=center;verticalAlign=middle;resizable=0;points=[];autosize=1;strokeColor=none;fillColor=none;" vertex="1" parent="1">
          <mxGeometry x="140" y="370" width="180" height="30" as="geometry" />
        </mxCell>
        <mxCell id="BUL7kBs1qDF7v4zvFPgR-43" value="" style="endArrow=classic;html=1;rounded=0;" edge="1" parent="1">
          <mxGeometry width="50" height="50" relative="1" as="geometry">
            <mxPoint x="440" y="420" as="sourcePoint" />
            <mxPoint x="140" y="420" as="targetPoint" />
            <Array as="points">
              <mxPoint x="290.5" y="420" />
            </Array>
          </mxGeometry>
        </mxCell>
        <mxCell id="BUL7kBs1qDF7v4zvFPgR-45" value="Фильмы не найдены" style="text;html=1;align=center;verticalAlign=middle;resizable=0;points=[];autosize=1;strokeColor=none;fillColor=none;" vertex="1" parent="1">
          <mxGeometry x="220" y="400" width="140" height="30" as="geometry" />
        </mxCell>
        <mxCell id="BUL7kBs1qDF7v4zvFPgR-56" value="" style="html=1;points=[[0,0,0,0,5],[0,1,0,0,-5],[1,0,0,0,5],[1,1,0,0,-5]];perimeter=orthogonalPerimeter;outlineConnect=0;targetShapes=umlLifeline;portConstraint=eastwest;newEdgeStyle={&quot;curved&quot;:0,&quot;rounded&quot;:0};" vertex="1" parent="1">
          <mxGeometry x="435" y="40" width="10" height="450" as="geometry" />
        </mxCell>
        <mxCell id="BUL7kBs1qDF7v4zvFPgR-57" value="Backend" style="html=1;whiteSpace=wrap;" vertex="1" parent="1">
          <mxGeometry x="385" y="520" width="110" height="50" as="geometry" />
        </mxCell>
        <mxCell id="BUL7kBs1qDF7v4zvFPgR-58" value="Пользователь" style="shape=umlActor;verticalLabelPosition=bottom;verticalAlign=top;html=1;" vertex="1" parent="1">
          <mxGeometry x="125" y="500" width="30" height="60" as="geometry" />
        </mxCell>
        <mxCell id="BUL7kBs1qDF7v4zvFPgR-63" value="Фильмы" style="html=1;whiteSpace=wrap;" vertex="1" parent="1">
          <mxGeometry x="710" y="520" width="110" height="50" as="geometry" />
        </mxCell>
        <mxCell id="BUL7kBs1qDF7v4zvFPgR-67" value="" style="html=1;points=[[0,0,0,0,5],[0,1,0,0,-5],[1,0,0,0,5],[1,1,0,0,-5]];perimeter=orthogonalPerimeter;outlineConnect=0;targetShapes=umlLifeline;portConstraint=eastwest;newEdgeStyle={&quot;curved&quot;:0,&quot;rounded&quot;:0};" vertex="1" parent="1">
          <mxGeometry x="755" y="290" width="10" height="50" as="geometry" />
        </mxCell>
        <mxCell id="BUL7kBs1qDF7v4zvFPgR-68" value="loop" style="shape=umlFrame;whiteSpace=wrap;html=1;pointerEvents=0;" vertex="1" parent="1">
          <mxGeometry x="220" y="790" width="1020" height="570" as="geometry" />
        </mxCell>
        <mxCell id="BUL7kBs1qDF7v4zvFPgR-74" value="Алгоритм сбора данных" style="shape=umlLifeline;perimeter=lifelinePerimeter;whiteSpace=wrap;html=1;container=1;dropTarget=0;collapsible=0;recursiveResize=0;outlineConnect=0;portConstraint=eastwest;newEdgeStyle={&quot;curved&quot;:0,&quot;rounded&quot;:0};" vertex="1" parent="1">
          <mxGeometry x="270" y="700" width="100" height="710" as="geometry" />
        </mxCell>
        <mxCell id="BUL7kBs1qDF7v4zvFPgR-75" value="" style="endArrow=classic;html=1;rounded=0;" edge="1" parent="1">
          <mxGeometry width="50" height="50" relative="1" as="geometry">
            <mxPoint x="320" y="830" as="sourcePoint" />
            <mxPoint x="660" y="830" as="targetPoint" />
          </mxGeometry>
        </mxCell>
        <mxCell id="BUL7kBs1qDF7v4zvFPgR-76" value="Собрать&amp;nbsp; статистику о фильме" style="edgeLabel;html=1;align=center;verticalAlign=middle;resizable=0;points=[];" vertex="1" connectable="0" parent="BUL7kBs1qDF7v4zvFPgR-75">
          <mxGeometry x="0.0143" y="3" relative="1" as="geometry">
            <mxPoint as="offset" />
          </mxGeometry>
        </mxCell>
        <mxCell id="BUL7kBs1qDF7v4zvFPgR-77" value="Каждый фильм" style="text;html=1;align=center;verticalAlign=middle;resizable=0;points=[];autosize=1;strokeColor=none;fillColor=none;" vertex="1" parent="1">
          <mxGeometry x="320" y="790" width="110" height="30" as="geometry" />
        </mxCell>
        <mxCell id="BUL7kBs1qDF7v4zvFPgR-78" value="Алгоритм аналитики данных" style="shape=umlLifeline;perimeter=lifelinePerimeter;whiteSpace=wrap;html=1;container=1;dropTarget=0;collapsible=0;recursiveResize=0;outlineConnect=0;portConstraint=eastwest;newEdgeStyle={&quot;curved&quot;:0,&quot;rounded&quot;:0};" vertex="1" parent="1">
          <mxGeometry x="610" y="690" width="100" height="720" as="geometry" />
        </mxCell>
        <mxCell id="BUL7kBs1qDF7v4zvFPgR-79" value="" style="endArrow=classic;html=1;rounded=0;" edge="1" parent="1">
          <mxGeometry width="50" height="50" relative="1" as="geometry">
            <mxPoint x="660" y="1180" as="sourcePoint" />
            <mxPoint x="1024.5" y="1180" as="targetPoint" />
          </mxGeometry>
        </mxCell>
        <mxCell id="BUL7kBs1qDF7v4zvFPgR-82" value="Записать &quot;Фильм доступен для расмещения в нем рекламы&quot;" style="edgeLabel;html=1;align=center;verticalAlign=middle;resizable=0;points=[];" vertex="1" connectable="0" parent="BUL7kBs1qDF7v4zvFPgR-79">
          <mxGeometry x="0.0225" y="1" relative="1" as="geometry">
            <mxPoint as="offset" />
          </mxGeometry>
        </mxCell>
        <mxCell id="BUL7kBs1qDF7v4zvFPgR-81" value="Белый лист фильмов для рекламодателей" style="shape=umlLifeline;perimeter=lifelinePerimeter;whiteSpace=wrap;html=1;container=1;dropTarget=0;collapsible=0;recursiveResize=0;outlineConnect=0;portConstraint=eastwest;newEdgeStyle={&quot;curved&quot;:0,&quot;rounded&quot;:0};size=30;" vertex="1" parent="1">
          <mxGeometry x="940" y="700" width="170" height="720" as="geometry" />
        </mxCell>
        <mxCell id="BUL7kBs1qDF7v4zvFPgR-100" value="" style="shape=umlDestroy;whiteSpace=wrap;html=1;strokeWidth=3;targetShapes=umlLifeline;" vertex="1" parent="BUL7kBs1qDF7v4zvFPgR-81">
          <mxGeometry x="70" y="690" width="30" height="30" as="geometry" />
        </mxCell>
        <mxCell id="BUL7kBs1qDF7v4zvFPgR-83" value="loop" style="shape=umlFrame;whiteSpace=wrap;html=1;pointerEvents=0;" vertex="1" parent="1">
          <mxGeometry x="580" y="1080" width="360" height="250" as="geometry" />
        </mxCell>
        <mxCell id="BUL7kBs1qDF7v4zvFPgR-84" value="каждый параметр собранной статистики" style="text;html=1;align=center;verticalAlign=middle;resizable=0;points=[];autosize=1;strokeColor=none;fillColor=none;" vertex="1" parent="1">
          <mxGeometry x="660" y="1080" width="260" height="30" as="geometry" />
        </mxCell>
        <mxCell id="BUL7kBs1qDF7v4zvFPgR-85" value="" style="endArrow=classic;html=1;rounded=0;" edge="1" parent="1">
          <mxGeometry width="50" height="50" relative="1" as="geometry">
            <mxPoint x="660" y="1150" as="sourcePoint" />
            <mxPoint x="660" y="1170" as="targetPoint" />
            <Array as="points">
              <mxPoint x="710.5" y="1150" />
            </Array>
          </mxGeometry>
        </mxCell>
        <mxCell id="BUL7kBs1qDF7v4zvFPgR-86" value="Проверка по внутренним&amp;nbsp; критериям" style="text;html=1;align=center;verticalAlign=middle;resizable=0;points=[];autosize=1;strokeColor=none;fillColor=none;" vertex="1" parent="1">
          <mxGeometry x="660" y="1128" width="230" height="30" as="geometry" />
        </mxCell>
        <mxCell id="BUL7kBs1qDF7v4zvFPgR-90" value="break" style="shape=umlFrame;whiteSpace=wrap;html=1;pointerEvents=0;" vertex="1" parent="1">
          <mxGeometry x="600" y="1220" width="300" height="80" as="geometry" />
        </mxCell>
        <mxCell id="BUL7kBs1qDF7v4zvFPgR-91" value="Фильм не проходит по критериям" style="text;html=1;align=center;verticalAlign=middle;resizable=0;points=[];autosize=1;strokeColor=none;fillColor=none;" vertex="1" parent="1">
          <mxGeometry x="660" y="1220" width="220" height="30" as="geometry" />
        </mxCell>
        <mxCell id="BUL7kBs1qDF7v4zvFPgR-92" value="" style="endArrow=classic;html=1;rounded=0;" edge="1" parent="1">
          <mxGeometry width="50" height="50" relative="1" as="geometry">
            <mxPoint x="660" y="1259.5" as="sourcePoint" />
            <mxPoint x="1024.5" y="1259.5" as="targetPoint" />
          </mxGeometry>
        </mxCell>
        <mxCell id="BUL7kBs1qDF7v4zvFPgR-93" value="Записать &quot;Фильм не доступен&quot;" style="edgeLabel;html=1;align=center;verticalAlign=middle;resizable=0;points=[];" vertex="1" connectable="0" parent="BUL7kBs1qDF7v4zvFPgR-92">
          <mxGeometry x="0.0225" y="1" relative="1" as="geometry">
            <mxPoint as="offset" />
          </mxGeometry>
        </mxCell>
        <mxCell id="BUL7kBs1qDF7v4zvFPgR-95" value="break" style="shape=umlFrame;whiteSpace=wrap;html=1;pointerEvents=0;" vertex="1" parent="1">
          <mxGeometry x="440" y="870" width="670" height="170" as="geometry" />
        </mxCell>
        <mxCell id="BUL7kBs1qDF7v4zvFPgR-96" value="Фильм недоступен&amp;nbsp;" style="text;html=1;align=center;verticalAlign=middle;resizable=0;points=[];autosize=1;strokeColor=none;fillColor=none;" vertex="1" parent="1">
          <mxGeometry x="510" y="870" width="130" height="30" as="geometry" />
        </mxCell>
        <mxCell id="BUL7kBs1qDF7v4zvFPgR-97" value="" style="endArrow=classic;html=1;rounded=0;" edge="1" parent="1">
          <mxGeometry width="50" height="50" relative="1" as="geometry">
            <mxPoint x="660" y="950" as="sourcePoint" />
            <mxPoint x="1024.5" y="950" as="targetPoint" />
          </mxGeometry>
        </mxCell>
        <mxCell id="BUL7kBs1qDF7v4zvFPgR-98" value="Записать &quot;Фильм не доступен&quot;" style="edgeLabel;html=1;align=center;verticalAlign=middle;resizable=0;points=[];" vertex="1" connectable="0" parent="BUL7kBs1qDF7v4zvFPgR-97">
          <mxGeometry x="0.0225" y="1" relative="1" as="geometry">
            <mxPoint as="offset" />
          </mxGeometry>
        </mxCell>
        <mxCell id="BUL7kBs1qDF7v4zvFPgR-101" value="Белый лист фильмов для рекламодателей" style="html=1;whiteSpace=wrap;" vertex="1" parent="1">
          <mxGeometry x="970" y="1430" width="110" height="50" as="geometry" />
        </mxCell>
        <mxCell id="BUL7kBs1qDF7v4zvFPgR-102" value="Алгоритм аналитики данных" style="html=1;whiteSpace=wrap;" vertex="1" parent="1">
          <mxGeometry x="610" y="1410" width="110" height="50" as="geometry" />
        </mxCell>
        <mxCell id="BUL7kBs1qDF7v4zvFPgR-103" value="Алгоритм сбора данных" style="html=1;whiteSpace=wrap;" vertex="1" parent="1">
          <mxGeometry x="265" y="1410" width="110" height="50" as="geometry" />
        </mxCell>
        <mxCell id="BUL7kBs1qDF7v4zvFPgR-104" value="" style="endArrow=classic;html=1;rounded=0;" edge="1" parent="1">
          <mxGeometry width="50" height="50" relative="1" as="geometry">
            <mxPoint x="320" y="760" as="sourcePoint" />
            <mxPoint x="660" y="760" as="targetPoint" />
          </mxGeometry>
        </mxCell>
        <mxCell id="BUL7kBs1qDF7v4zvFPgR-105" value="Начать сбор данных" style="edgeLabel;html=1;align=center;verticalAlign=middle;resizable=0;points=[];" vertex="1" connectable="0" parent="BUL7kBs1qDF7v4zvFPgR-104">
          <mxGeometry x="-0.2941" y="-1" relative="1" as="geometry">
            <mxPoint as="offset" />
          </mxGeometry>
        </mxCell>
      </root>
    </mxGraphModel>
  </diagram>
</mxfile>
